/* XPM */
static char * pifaceiconsmall_xpm[] = {
"36 50 425 2",
"  	c None",
". 	c #4E9F4A",
"+ 	c #4C9E49",
"@ 	c #4A9D48",
"# 	c #499B49",
"$ 	c #419744",
"% 	c #55A34C",
"& 	c #56A44D",
"* 	c #55A44E",
"= 	c #54A34D",
"- 	c #51A14B",
"; 	c #4E9F49",
"> 	c #479A46",
", 	c #449844",
"' 	c #3E9542",
") 	c #52A14B",
"! 	c #55A34D",
"~ 	c #58A64F",
"{ 	c #5BA850",
"] 	c #5CA951",
"^ 	c #5AA850",
"/ 	c #57A54E",
"( 	c #53A24C",
"_ 	c #4A9C48",
": 	c #469A45",
"< 	c #419643",
"[ 	c #3A9341",
"} 	c #35903F",
"| 	c #2E8D3E",
"1 	c #4B9D48",
"2 	c #4FA04A",
"3 	c #59A750",
"4 	c #5DA951",
"5 	c #60AC54",
"6 	c #61AC54",
"7 	c #5FAA52",
"8 	c #52A24C",
"9 	c #489B46",
"0 	c #3D9442",
"a 	c #369240",
"b 	c #318E3E",
"c 	c #298A3B",
"d 	c #228739",
"e 	c #479B46",
"f 	c #65B056",
"g 	c #69B158",
"h 	c #67B157",
"i 	c #63AE55",
"j 	c #5FAB53",
"k 	c #4FA14A",
"l 	c #459945",
"m 	c #3F9642",
"n 	c #389240",
"o 	c #328F3E",
"p 	c #2C8B3D",
"q 	c #23883A",
"r 	c #1F8638",
"s 	c #3C9442",
"t 	c #439845",
"u 	c #489C47",
"v 	c #54A44D",
"w 	c #5AA750",
"x 	c #64B056",
"y 	c #6BB359",
"z 	c #6FB55A",
"A 	c #6EB55A",
"B 	c #68B157",
"C 	c #62AC54",
"D 	c #5DAA52",
"E 	c #3A9340",
"F 	c #338F3F",
"G 	c #2D8C3D",
"H 	c #208638",
"I 	c #1E863A",
"J 	c #36913F",
"K 	c #3D9542",
"L 	c #449845",
"M 	c #499C47",
"N 	c #56A44E",
"O 	c #66B057",
"P 	c #6DB55A",
"Q 	c #72B85D",
"R 	c #70B75C",
"S 	c #6AB358",
"T 	c #63AF56",
"U 	c #5DAA53",
"V 	c #479A45",
"W 	c #33903F",
"X 	c #25883A",
"Y 	c #208639",
"Z 	c #1F8738",
"` 	c #208738",
" .	c #318E3D",
"..	c #3C9441",
"+.	c #439844",
"@.	c #489B47",
"#.	c #4D9F4A",
"$.	c #60AB53",
"%.	c #64AF56",
"&.	c #6EB55B",
"*.	c #6DB459",
"=.	c #62AD55",
"-.	c #57A54F",
";.	c #4B9D49",
">.	c #469A46",
",.	c #409743",
"'.	c #348F3F",
").	c #24893A",
"!.	c #208739",
"~.	c #288A3B",
"{.	c #2F8D3D",
"].	c #35913F",
"^.	c #3B9341",
"/.	c #429744",
"(.	c #58A54E",
"_.	c #66B157",
":.	c #66B156",
"<.	c #5BA750",
"[.	c #4FA04B",
"}.	c #459944",
"|.	c #3F9643",
"1.	c #338E3E",
"2.	c #2C8B3C",
"3.	c #23883B",
"4.	c #1F8739",
"5.	c #24883A",
"6.	c #409642",
"7.	c #55A44D",
"8.	c #59A64F",
"9.	c #5EAA52",
"0.	c #4D9E48",
"a.	c #479B47",
"b.	c #3C9542",
"c.	c #37913F",
"d.	c #308E3E",
"e.	c #2A8A3C",
"f.	c #218839",
"g.	c #1F873A",
"h.	c #238839",
"i.	c #2B8A3C",
"j.	c #37923F",
"k.	c #439744",
"l.	c #51A04B",
"m.	c #58A64E",
"n.	c #5BA851",
"o.	c #409643",
"p.	c #34903F",
"q.	c #2E8D3D",
"r.	c #27893B",
"s.	c #1F8639",
"t.	c #358F3F",
"u.	c #399340",
"v.	c #3F9542",
"w.	c #4D9F49",
"x.	c #4A9D47",
"y.	c #429743",
"z.	c #379140",
"A.	c #2B8B3C",
"B.	c #36903F",
"C.	c #3A9441",
"D.	c #4EA04A",
"E.	c #50A04A",
"F.	c #33903E",
"G.	c #26883A",
"H.	c #459A45",
"I.	c #489C48",
"J.	c #439B49",
"K.	c #429A49",
"L.	c #429A47",
"M.	c #3D9541",
"N.	c #399240",
"O.	c #34903E",
"P.	c #298A3C",
"Q.	c #218739",
"R.	c #2D8C3C",
"S.	c #3F9746",
"T.	c #4F9940",
"U.	c #869E2C",
"V.	c #929F26",
"W.	c #729B31",
"X.	c #3D9544",
"Y.	c #399341",
"Z.	c #379240",
"`.	c #338F3E",
" +	c #248739",
".+	c #308D3E",
"++	c #47953E",
"@+	c #A49F1D",
"#+	c #F3A600",
"$+	c #F0A600",
"%+	c #EFA500",
"&+	c #F2A500",
"*+	c #DFA405",
"=+	c #72972B",
"-+	c #2E8C3D",
";+	c #2A8B3C",
">+	c #318D3E",
",+	c #368F3D",
"'+	c #B49F14",
")+	c #EDA500",
"!+	c #EAA400",
"~+	c #EAA500",
"{+	c #E9A400",
"]+	c #E7A301",
"^+	c #6D9329",
"/+	c #24893C",
"(+	c #238739",
"_+	c #22883A",
":+	c #26893B",
"<+	c #268A3C",
"[+	c #6B942A",
"}+	c #E6A300",
"|+	c #E5A200",
"1+	c #E3A100",
"2+	c #E29F00",
"3+	c #E09E01",
"4+	c #DD9C04",
"5+	c #19863C",
"6+	c #BA9D10",
"7+	c #EAA300",
"8+	c #E4A200",
"9+	c #E2A001",
"0+	c #E09F01",
"a+	c #DE9D02",
"b+	c #DD9B02",
"c+	c #DB9A04",
"d+	c #D99906",
"e+	c #DC9806",
"f+	c #638D28",
"g+	c #1A863A",
"h+	c #16853B",
"i+	c #D29D06",
"j+	c #E19E00",
"k+	c #DE9C03",
"l+	c #DB9B03",
"m+	c #DA9A05",
"n+	c #D89807",
"o+	c #D69608",
"p+	c #D49509",
"q+	c #D3940B",
"r+	c #D4930C",
"s+	c #7B8D23",
"t+	c #18863A",
"u+	c #17863B",
"v+	c #BE970F",
"w+	c #DC9805",
"x+	c #D79707",
"y+	c #D59608",
"z+	c #D2930C",
"A+	c #D1930C",
"B+	c #CE910D",
"C+	c #CC900D",
"D+	c #CF8F0D",
"E+	c #698A28",
"F+	c #1B863A",
"G+	c #768D24",
"H+	c #DB9509",
"I+	c #D0930C",
"J+	c #CF920C",
"K+	c #CD900E",
"L+	c #CC900E",
"M+	c #CA8F0F",
"N+	c #C88E10",
"O+	c #C78C11",
"P+	c #318735",
"Q+	c #1E8639",
"R+	c #2D8736",
"S+	c #B49015",
"T+	c #CE8F0E",
"U+	c #C98D10",
"V+	c #C88D10",
"W+	c #C68C11",
"X+	c #C58B12",
"Y+	c #C38A12",
"Z+	c #CB8A12",
"`+	c #6E8828",
" @	c #3F8832",
".@	c #B58B16",
"+@	c #C48B12",
"@@	c #C28A13",
"#@	c #C08A13",
"$@	c #BF8814",
"%@	c #BD8715",
"&@	c #788625",
"*@	c #238738",
"=@	c #1C8639",
"-@	c #268738",
";@	c #6B8828",
">@	c #908720",
",@	c #93861F",
"'@	c #828623",
")@	c #498630",
"!@	c #1A873A",
"~@	c #1B8639",
"{@	c #1C863A",
"]@	c #1E8739",
"^@	c #1D8639",
"/@	c #1C8739",
"(@	c #19883A",
"_@	c #1C883A",
":@	c #1D8739",
"<@	c #1B8739",
"[@	c #218638",
"}@	c #537C2D",
"|@	c #797324",
"1@	c #5E782A",
"2@	c #507C2D",
"3@	c #4B7D2E",
"4@	c #497E2F",
"5@	c #4C7D2E",
"6@	c #597C2C",
"7@	c #6C7927",
"8@	c #867621",
"9@	c #A4731A",
"0@	c #A36717",
"a@	c #9E6818",
"b@	c #9F6818",
"c@	c #A06818",
"d@	c #A16A18",
"e@	c #A56C19",
"f@	c #A76F18",
"g@	c #A97218",
"h@	c #AB7518",
"i@	c #AD7717",
"j@	c #2E8435",
"k@	c #9E691A",
"l@	c #9A6A19",
"m@	c #9B6C1A",
"n@	c #9F6E1A",
"o@	c #A27019",
"p@	c #A67319",
"q@	c #A97518",
"r@	c #AD7817",
"s@	c #B07A17",
"t@	c #B37D16",
"u@	c #248537",
"v@	c #817222",
"w@	c #9F6E19",
"x@	c #A57218",
"y@	c #B07A16",
"z@	c #B77F15",
"A@	c #BB8214",
"B@	c #597D2B",
"C@	c #A67218",
"D@	c #AC7717",
"E@	c #AF7A16",
"F@	c #BE8513",
"G@	c #C28712",
"H@	c #2F8535",
"I@	c #9D791B",
"J@	c #B37C16",
"K@	c #B67F15",
"L@	c #BA8214",
"M@	c #C28711",
"N@	c #C58A10",
"O@	c #CA8D0F",
"P@	c #CC8F0E",
"Q@	c #6C8127",
"R@	c #B87F15",
"S@	c #BA8114",
"T@	c #C68910",
"U@	c #CD900D",
"V@	c #D0920B",
"W@	c #D4940A",
"X@	c #A8841A",
"Y@	c #C48712",
"Z@	c #C58910",
"`@	c #C98C0F",
" #	c #CD8F0D",
".#	c #D0920C",
"+#	c #D4950A",
"@#	c #D79608",
"##	c #DA9805",
"$#	c #3A8733",
"%#	c #CC8C10",
"&#	c #D0910B",
"*#	c #D99805",
"=#	c #DC9803",
"-#	c #DF9901",
";#	c #E19A01",
">#	c #738C25",
",#	c #D89409",
"'#	c #D99706",
")#	c #DC9904",
"!#	c #E19B01",
"~#	c #E39B00",
"{#	c #E69C00",
"]#	c #2A8836",
"^#	c #AC9414",
"/#	c #DD9903",
"(#	c #DF9A02",
"_#	c #E09B01",
":#	c #E89E00",
"<#	c #E99E00",
"[#	c #E99E01",
"}#	c #378933",
"|#	c #DD9A03",
"1#	c #E59C00",
"2#	c #E89D01",
"3#	c #EA9E00",
"4#	c #EA9D00",
"5#	c #508C2D",
"6#	c #EC9D00",
"7#	c #E99D00",
"8#	c #749023",
"9#	c #EA9D01",
"0#	c #218738",
"a#	c #959419",
"b#	c #E99D01",
"c#	c #1D863B",
"d#	c #B89810",
"e#	c #EC9E00",
"f#	c #248738",
"g#	c #B29712",
"h#	c #F19F00",
"i#	c #E99E02",
"j#	c #2F8835",
"k#	c #B79810",
"l#	c #338934",
"m#	c #C99A0B",
"n#	c #EB9E00",
"o#	c #348934",
"p#	c #B8980F",
"q#	c #ED9E00",
"r#	c #EA9E01",
"                                    . + @ # $                           ",
"                            % & & * = - ; @ > , '                       ",
"                        ) ! ~ { ] ] ^ / ( . _ : < [ } |                 ",
"                    1 2 % 3 4 5 6 6 7 { / 8 + 9 , 0 a b c d             ",
"                  e + 8 ~ 4 6 f g h i j { & k @ l m n o p q r           ",
"              s t u . v w j x y z A B C D ~ - 1 : $ E F G q r H I       ",
"            J K L M . N { 5 O P Q R S T U ~ 8 + V $ [ W G X Y Z ` r     ",
"           .J ..+.@.#.v ^ $.%.y &.*.B =.4 -.- ;.>.,.E '.G ).r !.` Z     ",
"        ~.{.].^./.> + 8 (.] 6 %._.:.i j <.* [.@ }.|.n 1.2.3.r !.!.` 4.  ",
"        5.G F [ 6.l @ 2 7.8.] j 6 5 9.{ / ) 0.a.+.b.c.d.e.f.r !.!.4.!.  ",
"      g.h.i.d.j.0 k.e 1 l.! m.^ n.n.3 / 8 . M l o.[ p.q.r.!.r !.!.!.4.H ",
"    g.s.!.~.| t.u.v., @.;.2 8 * N & = - w.x.>.y.s z.b A.5.r !.!.!.!.H Z ",
"    H Z s.5.i.b B.C.6., e x.+ D.E.2 w.1 M >.y.' n F.G r.!.!.!.!.!.!.4.!.",
"    s.!.r !.G.2.b J [ m k.H.> @.I.J.K.L., y.M.N.O.{.P.h.!.!.!.!.!.!.!.!.",
"  r ` !.4.r Q.r.R.b J u...|.$ S.T.U.V.W.X.Y.Z.`.{.A. +H r !.!.!.!.!.!.!.",
"  4.` !.!.!.4.Q.r.A..+F c.n ++@+#+$+%+&+*+=+o -+e. +H 4.!.!.!.!.!.!.4.` ",
"  !.Z !.!.!.!.r Q.X ;+-+>+,+'+)+!+~+~+{+!+]+^+/+(+H 4.!.!.!.!.!.!.!.` 4.",
"  r !.!.!.!.!.4.H H _+:+<+[+#+~+~+}+|+1+2+3+4+(+s.H !.!.!.!.!.!.!.!.` 4.",
"!.r !.!.!.!.!.!.!.!.r !.5+6+7+8+9+0+a+b+c+d+e+f+g+!.!.!.!.!.!.!.!.4.` s.",
"!.r !.!.!.!.!.!.!.!.!.r h+i+j+k+l+m+n+o+p+q+r+s+t+!.!.!.!.!.!.!.!.!.Z   ",
"4.` !.!.!.!.!.!.!.!.!.4.u+v+w+x+y+q+z+A+B+C+D+E+g+!.!.!.!.!.!.!.!.` s.  ",
"` 4.!.!.!.!.!.!.!.!.!.!.F+G+H+I+J+K+L+M+N+O+O+P+Q+!.!.!.!.!.!.!.Z s.    ",
"!.4.!.!.!.!.!.!.!.!.!.!.s.R+S+T+U+V+W+X+Y+Z+`+g+` !.!.!.!.!.!.4.H s.    ",
"s.!.!.!.!.!.!.!.!.!.!.!.` s. @.@+@@@#@$@%@&@*@s.!.!.!.!.!.!.!.Y 4.      ",
"` 4.!.!.!.!.!.!.!.!.!.!.!.` =@-@;@>@,@'@)@!@4.!.!.!.!.!.!.4.!.`         ",
"` 4.!.!.!.!.!.!.!.!.!.!.!.!.` s.~@{@]@!@^@4.` !.!.!.!.!.!.4.r           ",
"s.` !.!.!.!.!.!.!.!.!.!.!.!.!.!.!.!.!.!.!.!.!.!.H 4.!.s.r               ",
"  s.!.!.!.!.!.!.!.!.!.!.!.4.4.4.4.4.4.4.!.!.4.4.4.H 4.!.                ",
"  ` 4.!.!.!.!.!.!.!.!.!.H /@(@_@:@:@:@/@<@!@(@(@[@                      ",
"  s.H !.!.!.!.!.!.!.!.4.]@}@|@1@2@3@4@5@6@7@8@9@                        ",
"  ` 4.!.!.!.!.!.!.!.!.4.]@3@0@a@b@c@d@e@f@g@h@i@                        ",
"    H !.!.!.!.!.!.!.!.!.4.j@k@l@m@n@o@p@q@r@s@t@                        ",
"    Y 4.!.!.!.!.!.!.!.!.!.u@v@w@o@x@q@r@y@t@z@A@                        ",
"    4.H !.!.!.!.!.!.!.!.!.r B@C@q@D@E@t@z@A@F@G@                        ",
"      4.Z !.!.!.!.!.!.!.4.4.H@I@s@J@K@L@F@M@N@O@P@                      ",
"      ` !.4.!.!.!.!.!.!.!.H !@Q@R@S@F@M@T@O@U@V@W@                      ",
"        s.` !.!.!.!.!.!.!.!.4.s.X@Y@Z@`@ #.#+#@###                      ",
"          H ` !.!.!.!.!.!.!.H :@$#%# #&#W@x+*#=#-#;#                    ",
"          4.Z Y !.!.!.!.!.!.!.` ` >#,#x+'#)#-#!#~#{#                    ",
"            !.Z Y !.!.!.!.!.!.!.s.]#^#/#(#_#~#{#:#<#[#                  ",
"              Z !.!.!.!.!.!.!.!.H ^@}#|#~#1#2#<#<#3#4#[#                ",
"              Y Z ` !.!.!.!.!.!.!.` F+5#6#3#3#7#3#3#3#4#                ",
"                !.4.` !.!.!.!.!.!.!.` g+8#7#3#3#3#3#3#3#9#              ",
"                  s.` !.!.!.!.!.!.!.!.` 0#a#3#7#3#3#3#3#3#b#            ",
"                    4.!.!.!.!.!.!.!.!.!.s.c#d#e#4#<#3#3#3#<#4#          ",
"                      !.!.4.!.!.!.!.!.!.` Q+f#g#h#7#3#3#3#<#4#i#        ",
"                        r !.!.!.!.!.!.!.!.` s.j#k#e#<#3#3#3#<#4#        ",
"                          Z !.4.!.!.!.!.!.!.!.Q+l#m#n#7#<#3#4#<#        ",
"                            r H 4.4.4.4.!.!.4.` F+o#p#q#4#b#r#          ",
"                              s.!.!.!.!.4.4.!.!.` {@                    "};
